HIERARCHY
ROOT Hips
{
    OFFSET   0.000000   0.000000   0.000000
    CHANNELS 6 Xposition Yposition Zposition Zrotation Xrotation Yrotation
    JOINT Chest
    {
        OFFSET   0.000000   8.007230   0.000000
        CHANNELS 3 Zrotation Xrotation Yrotation
        JOINT Chest2
        {
            OFFSET   0.000000  22.077100   0.000000
            CHANNELS 3 Zrotation Xrotation Yrotation
            JOINT Neck
            {
                OFFSET   0.000000  23.255100   0.000000
                CHANNELS 3 Zrotation Xrotation Yrotation
                JOINT Head
                {
                    OFFSET   0.000000  14.370100   1.956600
                    CHANNELS 3 Zrotation Xrotation Yrotation
                    End Site
                    {
                        OFFSET   0.000000  19.566000   0.000000
                    }
                }
            }
            JOINT LeftCollar
            {
                OFFSET   3.911900  19.017000  -0.467063
                CHANNELS 3 Zrotation Xrotation Yrotation
                JOINT LeftShoulder
                {
                    OFFSET  10.383700   0.000000   0.000000
                    CHANNELS 3 Zrotation Xrotation Yrotation
                    JOINT LeftElbow
                    {
                        OFFSET  26.662100   0.001193   0.000980
                        CHANNELS 3 Zrotation Xrotation Yrotation
                        JOINT LeftWrist
                        {
                            OFFSET  28.869000  -0.000059  -0.000082
                            CHANNELS 3 Zrotation Xrotation Yrotation
                            JOINT LeftFinger0
                            {
                                OFFSET   2.044650  -2.323450   3.252850
                                CHANNELS 3 Zrotation Xrotation Yrotation
                                JOINT LeftFinger01
                                {
                                    OFFSET   3.088130   0.000000   0.000000
                                    CHANNELS 3 Zrotation Xrotation Yrotation
                                    JOINT LeftFinger02
                                    {
                                        OFFSET   2.639460   0.000000   0.000000
                                        CHANNELS 3 Zrotation Xrotation Yrotation
                                        End Site
                                        {
                                            OFFSET   2.582190   0.000000   0.000000
                                        }
                                    }
                                }
                            }
                            JOINT LeftFinger1
                            {
                                OFFSET   8.364480   0.000000   3.252850
                                CHANNELS 3 Zrotation Xrotation Yrotation
                                JOINT LeftFinger11
                                {
                                    OFFSET   4.646930   0.000000   0.000000
                                    CHANNELS 3 Zrotation Xrotation Yrotation
                                    JOINT LeftFinger12
                                    {
                                        OFFSET   2.323470   0.000000   0.000000
                                        CHANNELS 3 Zrotation Xrotation Yrotation
                                        End Site
                                        {
                                            OFFSET   2.273050   0.000000   0.000000
                                        }
                                    }
                                }
                            }
                            JOINT LeftFinger2
                            {
                                OFFSET   8.364490   0.000016   1.078090
                                CHANNELS 3 Zrotation Xrotation Yrotation
                                JOINT LeftFinger21
                                {
                                    OFFSET   5.111610   0.000000   0.000000
                                    CHANNELS 3 Zrotation Xrotation Yrotation
                                    JOINT LeftFinger22
                                    {
                                        OFFSET   2.788150   0.000016   0.000000
                                        CHANNELS 3 Zrotation Xrotation Yrotation
                                        End Site
                                        {
                                            OFFSET   2.727660   0.000000   0.000000
                                        }
                                    }
                                }
                            }
                            JOINT LeftFinger3
                            {
                                OFFSET   7.899780   0.000015  -1.078090
                                CHANNELS 3 Zrotation Xrotation Yrotation
                                JOINT LeftFinger31
                                {
                                    OFFSET   4.646930   0.000000   0.000000
                                    CHANNELS 3 Zrotation Xrotation Yrotation
                                    JOINT LeftFinger32
                                    {
                                        OFFSET   2.323470   0.000000   0.000000
                                        CHANNELS 3 Zrotation Xrotation Yrotation
                                        End Site
                                        {
                                            OFFSET   2.273050   0.000000   0.000000
                                        }
                                    }
                                }
                            }
                            JOINT LeftFinger4
                            {
                                OFFSET   7.435090   0.000000  -3.252850
                                CHANNELS 3 Zrotation Xrotation Yrotation
                                JOINT LeftFinger41
                                {
                                    OFFSET   3.717550   0.000000   0.000000
                                    CHANNELS 3 Zrotation Xrotation Yrotation
                                    JOINT LeftFinger42
                                    {
                                        OFFSET   1.858770   0.000000   0.000000
                                        CHANNELS 3 Zrotation Xrotation Yrotation
                                        End Site
                                        {
                                            OFFSET   1.818440   0.000000   0.000000
                                        }
                                    }
                                }
                            }
                        }
                    }
                }
            }
            JOINT RightCollar
            {
                OFFSET  -3.911910  19.017000  -0.467062
                CHANNELS 3 Zrotation Xrotation Yrotation
                JOINT RightShoulder
                {
                    OFFSET -10.383700   0.000014   0.000000
                    CHANNELS 3 Zrotation Xrotation Yrotation
                    JOINT RightElbow
                    {
                        OFFSET -26.662100   0.001225   0.001091
                        CHANNELS 3 Zrotation Xrotation Yrotation
                        JOINT RightWrist
                        {
                            OFFSET -28.869000  -0.000020  -0.000085
                            CHANNELS 3 Zrotation Xrotation Yrotation
                            JOINT RightFinger0
                            {
                                OFFSET  -2.044650  -2.323490   3.252850
                                CHANNELS 3 Zrotation Xrotation Yrotation
                                JOINT RightFinger01
                                {
                                    OFFSET  -3.088130   0.000000   0.000000
                                    CHANNELS 3 Zrotation Xrotation Yrotation
                                    JOINT RightFinger02
                                    {
                                        OFFSET  -2.639460   0.000000   0.000000
                                        CHANNELS 3 Zrotation Xrotation Yrotation
                                        End Site
                                        {
                                            OFFSET  -2.582190   0.000000   0.000000
                                        }
                                    }
                                }
                            }
                            JOINT RightFinger1
                            {
                                OFFSET  -8.364480   0.000000   3.252850
                                CHANNELS 3 Zrotation Xrotation Yrotation
                                JOINT RightFinger11
                                {
                                    OFFSET  -4.646930   0.000000   0.000000
                                    CHANNELS 3 Zrotation Xrotation Yrotation
                                    JOINT RightFinger12
                                    {
                                        OFFSET  -2.323470   0.000000   0.000000
                                        CHANNELS 3 Zrotation Xrotation Yrotation
                                        End Site
                                        {
                                            OFFSET  -2.273050   0.000000   0.000000
                                        }
                                    }
                                }
                            }
                            JOINT RightFinger2
                            {
                                OFFSET  -8.364480   0.000000   1.078090
                                CHANNELS 3 Zrotation Xrotation Yrotation
                                JOINT RightFinger21
                                {
                                    OFFSET  -5.111620   0.000000   0.000000
                                    CHANNELS 3 Zrotation Xrotation Yrotation
                                    JOINT RightFinger22
                                    {
                                        OFFSET  -2.788160   0.000000   0.000000
                                        CHANNELS 3 Zrotation Xrotation Yrotation
                                        End Site
                                        {
                                            OFFSET  -2.727660   0.000000   0.000000
                                        }
                                    }
                                }
                            }
                            JOINT RightFinger3
                            {
                                OFFSET  -7.899780   0.000000  -1.078090
                                CHANNELS 3 Zrotation Xrotation Yrotation
                                JOINT RightFinger31
                                {
                                    OFFSET  -4.646930   0.000000   0.000000
                                    CHANNELS 3 Zrotation Xrotation Yrotation
                                    JOINT RightFinger32
                                    {
                                        OFFSET  -2.323470   0.000000   0.000000
                                        CHANNELS 3 Zrotation Xrotation Yrotation
                                        End Site
                                        {
                                            OFFSET  -2.273050   0.000000   0.000000
                                        }
                                    }
                                }
                            }
                            JOINT RightFinger4
                            {
                                OFFSET  -7.435090   0.000000  -3.252850
                                CHANNELS 3 Zrotation Xrotation Yrotation
                                JOINT RightFinger41
                                {
                                    OFFSET  -3.717550   0.000000   0.000000
                                    CHANNELS 3 Zrotation Xrotation Yrotation
                                    JOINT RightFinger42
                                    {
                                        OFFSET  -1.858760   0.000000   0.000000
                                        CHANNELS 3 Zrotation Xrotation Yrotation
                                        End Site
                                        {
                                            OFFSET  -1.818440   0.000000   0.000000
                                        }
                                    }
                                }
                            }
                        }
                    }
                }
            }
        }
    }
    JOINT LeftHip
    {
        OFFSET   9.783030   0.000000   0.000000
        CHANNELS 3 Zrotation Xrotation Yrotation
        JOINT LeftKnee
        {
            OFFSET   0.000063 -41.789100   0.000608
            CHANNELS 3 Zrotation Xrotation Yrotation
            JOINT LeftAnkle
            {
                OFFSET   0.000048 -41.133200  -0.000184
                CHANNELS 3 Zrotation Xrotation Yrotation
                JOINT LeftToe
                {
                    OFFSET   0.000000  -6.358960  14.674500
                    CHANNELS 3 Zrotation Xrotation Yrotation
                    End Site
                    {
                        OFFSET   0.000000   0.000000   3.913200
                    }
                }
            }
        }
    }
    JOINT RightHip
    {
        OFFSET  -9.783030   0.000000   0.000000
        CHANNELS 3 Zrotation Xrotation Yrotation
        JOINT RightKnee
        {
            OFFSET   0.000071 -41.789100   0.001239
            CHANNELS 3 Zrotation Xrotation Yrotation
            JOINT RightAnkle
            {
                OFFSET   0.000037 -41.133200  -0.000166
                CHANNELS 3 Zrotation Xrotation Yrotation
                JOINT RightToe
                {
                    OFFSET   0.000000  -6.358960  14.674500
                    CHANNELS 3 Zrotation Xrotation Yrotation
                    End Site
                    {
                        OFFSET   0.000000   0.000000   3.913200
                    }
                }
            }
        }
    }
}
MOTION
Frames: 5
Frame Time:   0.016667
  2.153740  89.520700  -0.068091  -0.085611  -9.163360  -0.561630  -0.128033   4.888890  -0.714675  -0.195668   9.779010  -1.426180   2.277250   1.437050  -0.060840   3.735840   2.900250   4.336420  -1.933730  -0.374469   3.725030 -76.755600  19.251400  -4.314810  -1.136430  -5.173180 -17.185300  17.394800  -5.575980   5.483760  36.733000  28.713100 -56.898000 -33.141900   0.002887   0.006442 -11.572900   0.001823   0.001120 -32.096300   5.047190  -7.987100 -26.548600   0.002085   0.001141 -18.582900   0.001455  -0.004414 -28.737600  -0.215235   0.391254 -40.077200   0.004189   0.002459 -26.691500   0.001806   0.002800 -28.644200  -0.214612   0.391597 -38.199100   0.003198   0.005684 -25.437100   0.002095   0.000221 -31.192800  -0.230974   0.381813 -46.790300   0.002106  -0.001286 -31.162400  -0.015484  -0.000000   8.071560  -0.256869   4.143420  69.123400  24.400400  -2.198870  -2.800340  -3.107230  16.568600 -12.272900  -4.667510  -0.632770 -38.523100  36.252500  74.002100  31.536600  -0.000977   0.000648  10.768300   0.001915   0.001547  39.496300   8.637680  10.326700  32.954600   0.001367  -0.002715  23.181100   0.001296  -0.002312  31.560300   1.757830   2.858650  47.405500  -0.007623   0.000453  31.572100   0.002266   0.000273  28.834400   1.133460   2.057700  43.281600  -0.010532   0.012394  28.825600  -0.005810   0.010643  42.051500  -1.697240  -1.880340  63.118800   0.001233   0.015984  42.037100   0.005867   0.006935  -1.851850  10.632500   2.558820   0.107313   0.407107   0.911658  -0.164785  -2.850700  -2.925480   0.000000   0.000000  -0.000000   1.241180   7.345810   1.926690  -3.582160   6.593390  -2.986240   1.244540  -5.481780  -1.411250   0.000000   0.000000   0.000000
  2.206090  89.520600  -0.077682  -0.059492  -9.173430  -0.528062  -0.133253   4.900690  -0.710712  -0.206333   9.802670  -1.417790   2.271910   1.432860  -0.060817   3.730480   2.891890   4.349300  -1.939160  -0.388778   3.725030 -76.753600  19.269000  -4.341220  -1.140610  -5.191230 -17.167900  17.396300  -5.570810   5.503420  36.731100  28.701000 -56.887800 -33.141700   0.002871   0.006467 -11.572700   0.001811   0.001127 -32.096400   5.047230  -7.987160 -26.548600   0.002094   0.001131 -18.583000   0.001463  -0.004411 -28.737600  -0.214961   0.391196 -40.067600   0.004234   0.002474 -26.685000   0.001833   0.002811 -28.644200  -0.214341   0.391539 -38.196100   0.003211   0.005686 -25.437600   0.002101   0.000243 -31.189100  -0.230944   0.381751 -46.784800   0.002112  -0.001274 -31.158600  -0.015500   0.000033   8.106350  -0.310991   4.177700  69.109500  24.406700  -2.251420  -2.833580  -3.086020  16.685900 -12.303000  -4.517700  -0.602675 -38.383000  36.135700  73.884300  31.614600  -0.000976   0.000655  10.807300   0.001912   0.001554  39.522600   8.561090  10.226900  32.960600   0.001362  -0.002709  23.186400   0.001294  -0.002306  31.582300   1.690980   2.747620  47.434700  -0.007627   0.000457  31.591500   0.002261   0.000273  28.872400   1.075600   1.951020  43.335400  -0.010551   0.012400  28.861400  -0.005805   0.010641  42.104900  -1.714100  -1.895400  63.199700   0.001238   0.016004  42.091000   0.005836   0.006941  -1.904560  10.638500   2.558850   0.105543   0.401362   0.900216  -0.156612  -2.843280  -2.930360   0.000000   0.000000   0.000000   1.192540   7.348370   1.918430  -3.596710   6.615620  -2.997760   1.273160  -5.492000  -1.411400  -0.000000   0.000000  -0.000000
  2.293530  89.520400  -0.094213  -0.024213  -9.196360  -0.494511  -0.138519   4.925290  -0.704399  -0.217201   9.851960  -1.404630   2.263670   1.425020  -0.060771   3.721880   2.876200   4.375490  -1.947920  -0.415070   3.725050 -76.753600  19.293300  -4.386220  -1.148980  -5.221950 -17.132400  17.398200  -5.559060   5.534470  36.720800  28.673900 -56.865100 -33.141500   0.002837   0.006515 -11.572500   0.001776   0.001138 -32.096400   5.047320  -7.987290 -26.548700   0.002114   0.001108 -18.583200   0.001480  -0.004406 -28.737600  -0.214579   0.391137 -40.053200   0.004346   0.002512 -26.675400   0.001901   0.002840 -28.644200  -0.213962   0.391480 -38.190900   0.003243   0.005692 -25.438100   0.002121   0.000302 -31.182300  -0.230914   0.381688 -46.774600   0.002129  -0.001242 -31.151800  -0.015542   0.000094   8.164540  -0.408308   4.233410  69.081000  24.412300  -2.356630  -2.924240  -3.048950  16.980500 -12.370200  -4.253190  -0.539715 -38.243600  36.018500  73.767500  31.740400  -0.000971   0.000665  10.870200   0.001904   0.001571  39.547600   8.438740  10.076500  32.966600   0.001357  -0.002695  23.191800   0.001293  -0.002295  31.607300   1.588420   2.578250  47.463900  -0.007636   0.000465  31.610900   0.002246   0.000273  28.929000   1.000430   1.809590  43.416700  -0.010588   0.012405  28.915500  -0.005794   0.010637  42.184800  -1.739340  -1.917930  63.320600   0.001254   0.016044  42.171600   0.005770   0.006956  -1.987550  10.653700   2.558960   0.100962   0.393497   0.881610  -0.141766  -2.835860  -2.935230   0.000000   0.000000   0.000000   1.116760   7.352780   1.910180  -3.623050   6.656550  -3.009670   1.321060  -5.508590  -1.411570  -0.000000   0.000000   0.000000
  2.363680  89.519200  -0.108404  -0.010544  -9.226780  -0.494604  -0.137197   4.955010  -0.698949  -0.214721   9.911370  -1.393810   2.257370   1.416410  -0.060718   3.714510   2.858940   4.405630  -1.954700  -0.442193   3.727860 -76.760100  19.301500  -4.424240  -1.159000  -5.245880 -17.091600  17.393500  -5.543890   5.556330  36.699800  28.630300 -56.837900 -33.142200   0.002798   0.006564 -11.572600   0.001713   0.001140 -32.096500   5.047420  -7.987470 -26.548700   0.002145   0.001078 -18.583400   0.001503  -0.004403 -28.737700  -0.214419   0.391152 -40.047100   0.004516   0.002573 -26.671400   0.002004   0.002886 -28.644300  -0.213799   0.391495 -38.187000   0.003289   0.005703 -25.434900   0.002154   0.000394 -31.176300  -0.230921   0.381704 -46.765500   0.002159  -0.001193 -31.145700  -0.015610   0.000156   8.212980  -0.503014   4.276210  69.049300  24.355900  -2.476510  -3.057130  -3.022360  17.396600 -12.459200  -3.996610  -0.467224 -38.286300  36.185300  73.953100  31.813300  -0.000955   0.000671  10.906600   0.001891   0.001593  39.501900   8.363170  10.005400  32.923400   0.001357  -0.002675  23.152700   0.001297  -0.002285  31.602900   1.536260   2.493750  47.453200  -0.007647   0.000479  31.603800   0.002220   0.000282  28.957700   0.987382   1.782580  43.459500  -0.010639   0.012405  28.944100  -0.005778   0.010632  42.227300  -1.752840  -1.929970  63.385000   0.001284   0.016093  42.214500   0.005678   0.006983  -2.043600  10.675100   2.561860   0.093727   0.392020   0.866506  -0.126621  -2.839070  -2.918750   0.000000   0.000000  -0.000000   1.068300   7.356900   1.911170  -3.647880   6.696320  -3.010230   1.359900  -5.521460  -1.409880  -0.000000   0.000000  -0.000000
  2.434410  89.517500  -0.123618  -0.001788  -9.266270  -0.495015  -0.133803   4.991380  -0.695870  -0.207665   9.984030  -1.387940   2.253970   1.407800  -0.060663   3.709940   2.841600   4.442860  -1.960250  -0.470340   3.734490 -76.771600  19.305400  -4.463390  -1.173590  -5.274580 -17.040600  17.382000  -5.523290   5.574790  36.674900  28.579600 -56.816600 -33.145800   0.002748   0.006630 -11.572900   0.001635   0.001141 -32.096500   5.047520  -7.987650 -26.548800   0.002182   0.001038 -18.583500   0.001529  -0.004400 -28.737800  -0.214368   0.391258 -40.039300   0.004726   0.002649 -26.666200   0.002129   0.002943 -28.644400  -0.213745   0.391598 -38.180800   0.003346   0.005716 -25.428400   0.002194   0.000510 -31.168200  -0.230972   0.381812 -46.753400   0.002194  -0.001132 -31.137700  -0.015696   0.000229   8.258370  -0.602453   4.314840  68.998400  24.219700  -2.616480  -3.260130  -2.980110  17.987400 -12.569700  -3.749860  -0.369830 -38.306400  36.466500  74.307800  31.918500  -0.000929   0.000675  10.959200   0.001877   0.001626  39.434500   8.272340   9.921460  32.853300   0.001358  -0.002652  23.089200   0.001302  -0.002271  31.578000   1.472450   2.391880  47.413500  -0.007662   0.000496  31.577400   0.002184   0.000297  28.985600   0.977355   1.763240  43.501100  -0.010690   0.012405  28.971800  -0.005755   0.010627  42.263100  -1.764220  -1.940110  63.439400   0.001322   0.016142  42.250600   0.005586   0.007015  -2.095710  10.706600   2.568220   0.084851   0.390153   0.854338  -0.109042  -2.845550  -2.883120  -0.000000   0.000000   0.000000   1.025390   7.360670   1.916190  -3.674120   6.742840  -3.010570   1.399820  -5.532740  -1.400620   0.000000   0.000000   0.000000
